# xmcd CD database file
#
# Track frame offsets:
#	150
#	19582
#	38785
#	56102
#	74637
#	94336
#	111566
#	129750
#	150109
#	168913
#	180034
#	199277
#	217193
#	235625
#	253179
#	271987
#	290870
#	309311
#	327145
#
# Disc length: 4615 seconds
#
# Revision: 0
# Processed by: cddbd v1.5.2PL0 Copyright (c) Steve Scherf et al.
# Submitted via: CDex 1.70beta2
#
DISCID=10120513
DTITLE=Karl May-CD4 - Der Schatz im Silbersee
DYEAR=2006
DGENRE=Hörbuch Karl May
TTITLE0=Der Schatz im Silbersee-CD04
TTITLE1=Der Schatz im Silbersee-CD04
TTITLE2=Der Schatz im Silbersee-CD04
TTITLE3=Der Schatz im Silbersee-CD04
TTITLE4=Der Schatz im Silbersee-CD04
TTITLE5=Der Schatz im Silbersee-CD04
TTITLE6=Der Schatz im Silbersee-CD04
TTITLE7=Der Schatz im Silbersee-CD04
TTITLE8=Der Schatz im Silbersee-CD04
TTITLE9=Der Schatz im Silbersee-CD04
TTITLE10=Der Schatz im Silbersee-CD04
TTITLE11=Der Schatz im Silbersee-CD04
TTITLE12=Der Schatz im Silbersee-CD04
TTITLE13=Der Schatz im Silbersee-CD04
TTITLE14=Der Schatz im Silbersee-CD04
TTITLE15=Der Schatz im Silbersee-CD04
TTITLE16=Der Schatz im Silbersee-CD04
TTITLE17=Der Schatz im Silbersee-CD04
TTITLE18=Der Schatz im Silbersee-CD04
EXTD=YEAR: 2006
EXTT0=
EXTT1=
EXTT2=
EXTT3=
EXTT4=
EXTT5=
EXTT6=
EXTT7=
EXTT8=
EXTT9=
EXTT10=
EXTT11=
EXTT12=
EXTT13=
EXTT14=
EXTT15=
EXTT16=
EXTT17=
EXTT18=
PLAYORDER=
